<svg xmlns="http://www.w3.org/2000/svg" width="400" height="400" viewBox="0 0 400 400">
  <g fill="none" stroke="#8b6914" stroke-width="0.5" opacity="0.04">
    <path d="M50 200 Q100 150 200 180 T350 160" />
    <path d="M0 250 Q80 200 180 230 T400 210" />
    <path d="M30 300 Q120 260 220 280 T380 270" />
    <path d="M0 100 Q60 60 160 90 T350 70" />
    <path d="M20 150 Q90 110 190 140 T370 120" />
    <path d="M0 350 Q100 310 200 340 T400 320" />
    <path d="M40 50 Q110 20 210 40 T360 30" />
    <path d="M60 380 Q130 350 230 370 T400 360" />
    <ellipse cx="200" cy="200" rx="120" ry="80" />
    <ellipse cx="200" cy="200" rx="90" ry="55" />
    <ellipse cx="200" cy="200" rx="55" ry="30" />
    <ellipse cx="320" cy="80" rx="60" ry="40" />
    <ellipse cx="320" cy="80" rx="35" ry="20" />
    <ellipse cx="80" cy="320" rx="50" ry="35" />
    <ellipse cx="80" cy="320" rx="25" ry="15" />
  </g>
</svg>
